<svg width="1000" height="1354" viewBox="0 0 1000 1354" fill="none" xmlns="http://www.w3.org/2000/svg">
<path d="M279.405 588.4V765.4H823.505V803.6C823.505 871.3 787.705 933.9 729.405 968.3C660.205 1010.1 580.805 1032.3 499.905 1032.5C418.905 1032.6 339.505 1010.2 270.505 967.8C212.405 933.3 176.805 870.7 176.905 803.1V550.1C176.905 482.4 212.705 419.8 271.005 385.4C340.205 343.4 419.505 321 500.405 320.7C581.405 320.6 660.805 343 729.905 385.4C772.505 410.7 803.205 452 815.105 500H994.505C979.405 389.2 914.105 291.6 817.505 235.3C746.005 193.2 667.205 165.3 585.205 153V0H408.205V150C327.105 163.9 249.305 192.8 178.805 235.2C67.5053 301 -0.694663 420.9 0.0053372 550.2V803.2C-0.494663 932.5 67.8054 1052.4 179.405 1117.8C250.905 1159.8 329.705 1187.7 411.705 1200.1V1353.1H588.205V1203.2C670.205 1190.9 749.005 1163.1 820.505 1121.1C932.105 1055.7 1000.51 935.8 999.905 806.5V588.5H279.405V588.4Z" fill="#8C41FF"/>
</svg>
