<?xml version="1.0" encoding="UTF-8"?>
<!-- GLEEC Full Wordmark - White version for dark backgrounds -->
<!-- Color: #FFFFFF (white) -->
<svg viewBox="699 117 1107 236" fill="none" xmlns="http://www.w3.org/2000/svg">
  <!-- G -->
  <path d="M828 213.679H763.714V256.536H838.5V277.964C838.464 282.488 837.266 286.927 835.021 290.855C832.776 294.782 829.559 298.067 825.679 300.393C814.996 306.684 802.825 310.001 790.429 310.001C778.032 310.001 765.861 306.684 755.178 300.393C751.272 298.096 748.034 294.818 745.785 290.884C743.536 286.95 742.354 282.496 742.357 277.964V192.321C742.38 187.79 743.572 183.341 745.818 179.406C748.064 175.47 751.288 172.181 755.178 169.857C765.928 163.727 778.055 160.422 790.429 160.25C802.821 160.284 814.983 163.599 825.679 169.857C829.583 172.165 832.819 175.451 835.067 179.39C837.315 183.329 838.498 187.786 838.5 192.321H881.357C881.444 180.487 878.435 168.835 872.627 158.522C866.819 148.21 858.416 139.596 848.25 133.536C830.825 123.067 810.881 117.537 790.553 117.537C770.226 117.537 750.282 123.067 732.857 133.536C722.691 139.596 714.288 148.21 708.48 158.522C702.672 168.835 699.663 180.487 699.75 192.321V277.786C699.669 289.615 702.681 301.259 708.489 311.565C714.296 321.87 722.697 330.478 732.857 336.536C750.274 347.027 770.221 352.57 790.553 352.57C810.886 352.57 830.833 347.027 848.25 336.536C858.41 330.478 866.811 321.87 872.618 311.565C878.426 301.259 881.438 289.615 881.357 277.786V213.5H828V213.679Z" fill="#FFFFFF"/>
  <!-- L -->
  <path d="M993.571 122.857H950.714V325.857C950.714 331.54 952.972 336.991 956.991 341.009C961.009 345.028 966.46 347.286 972.143 347.286H1111.04V304.429H993.571V122.857Z" fill="#FFFFFF"/>
  <!-- E -->
  <path d="M1175.21 144.214V325.857C1175.21 331.54 1177.47 336.991 1181.49 341.009C1185.51 345.028 1190.96 347.286 1196.64 347.286H1335.54V304.429H1217.86V256.393H1314.29V213.536H1217.86V165.607H1335.36V122.75H1196.43C1190.75 122.75 1185.29 125.008 1181.28 129.026C1177.26 133.045 1175 138.495 1175 144.179" fill="#FFFFFF"/>
  <!-- E -->
  <path d="M1399.57 144.214V325.857C1399.57 331.54 1401.83 336.991 1405.85 341.009C1409.87 345.028 1415.32 347.286 1421 347.286H1559.89V304.429H1442.39V256.393H1538.54V213.536H1442.32V165.607H1559.82V122.75H1420.93C1415.25 122.75 1409.8 125.008 1405.78 129.026C1401.76 133.045 1399.5 138.495 1399.5 144.179" fill="#FFFFFF"/>
  <!-- C -->
  <path d="M1762.82 277.786C1762.79 282.31 1761.59 286.748 1759.34 290.676C1757.1 294.604 1753.88 297.888 1750 300.214C1739.25 306.344 1727.12 309.649 1714.75 309.821C1702.36 309.787 1690.2 306.473 1679.5 300.214C1675.59 297.917 1672.36 294.639 1670.11 290.705C1667.86 286.771 1666.68 282.317 1666.68 277.786V192.321C1666.7 187.79 1667.89 183.341 1670.14 179.406C1672.39 175.47 1675.61 172.181 1679.5 169.857C1690.25 163.727 1702.38 160.422 1714.75 160.25C1727.14 160.284 1739.3 163.599 1750 169.857C1753.9 172.165 1757.14 175.451 1759.39 179.39C1761.64 183.329 1762.82 187.786 1762.82 192.321V213.75H1805.68V186.964C1804.93 176.011 1801.52 165.406 1795.75 156.07C1789.97 146.734 1782 138.95 1772.54 133.393C1755.11 122.925 1735.17 117.394 1714.84 117.394C1694.51 117.394 1674.57 122.925 1657.14 133.393C1646.98 139.453 1638.57 148.067 1632.77 158.38C1626.96 168.692 1623.95 180.344 1624.04 192.179V277.786C1623.95 289.615 1626.97 301.259 1632.77 311.565C1638.58 321.87 1646.98 330.478 1657.14 336.536C1674.56 347.027 1694.51 352.57 1714.84 352.57C1735.17 352.57 1755.12 347.027 1772.54 336.536C1781.91 330.874 1789.81 323.063 1795.57 313.748C1801.33 304.434 1804.8 293.882 1805.68 282.964V256.393H1762.82V277.786Z" fill="#FFFFFF"/>
</svg>
